<svg width="1024" height="1024" viewBox="0 0 1024 1024" fill="none" xmlns="http://www.w3.org/2000/svg">
  <rect width="1024" height="1024" fill="#F6EFE8"/>
  <g stroke="#2F2A27" stroke-width="18" stroke-linecap="round" stroke-linejoin="round">
    <circle cx="512" cy="512" r="214"/>
    <path d="M512 328L578 394L534 438L468 372L512 328Z" fill="#AB7E57"/>
    <path d="M647 403L674 493L613 511L586 421L647 403Z" fill="#F6EFE8"/>
    <path d="M646 621L572 679L534 630L608 572L646 621Z" fill="#AB7E57"/>
    <path d="M378 681L349 592L410 572L439 661L378 681Z" fill="#F6EFE8"/>
    <path d="M353 403L438 372L460 435L375 466L353 403Z" fill="#AB7E57"/>
    <path d="M451 447H573C605 447 631 473 631 505V585C631 617 605 643 573 643H451C419 643 393 617 393 585V505C393 473 419 447 451 447Z" fill="#F6EFE8"/>
    <path d="M433 590L479 544L517 582L571 519L612 560" />
    <path d="M446 495H578" />
    <path d="M449 527C458 527 465 520 465 511C465 502 458 495 449 495C440 495 433 502 433 511C433 520 440 527 449 527Z" fill="#AB7E57"/>
    <path d="M448 609H579" opacity="0.65"/>
    <path d="M473 470L505 438" opacity="0.65"/>
    <path d="M521 470L553 438" opacity="0.65"/>
    <path d="M487 634L455 667" opacity="0.65"/>
    <path d="M539 634L571 667" opacity="0.65"/>
  </g>
</svg>
